<?xml version="1.0" encoding="UTF-8"?>
<svg width="700pt" height="700pt" version="1.1" viewBox="0 0 700 700" xmlns="http://www.w3.org/2000/svg">
 <path d="m350 46.668c-128.33 0-233.33 105-233.33 233.33s105 233.33 233.33 233.33 233.33-105 233.33-233.33-105-233.33-233.33-233.33zm184.33 210h-72.332c-2.332-58.332-14-107.33-32.668-144.67 56 25.668 98 79.332 105 144.67zm-184.33 210c-25.668 0-60.668-63-65.332-163.33h133c-7 100.33-42 163.33-67.668 163.33zm-65.332-210c4.668-100.33 39.668-163.33 65.332-163.33 25.668 0 60.668 63 65.332 163.33zm-14-144.67c-18.668 37.332-30.336 86.332-32.668 144.67h-72.332c7-65.336 49-119 105-144.67zm-105 191.33h72.332c2.332 58.332 14 107.33 32.668 144.67-56-25.668-98-79.332-105-144.67zm263.66 144.67c18.668-37.332 30.332-86.332 32.668-144.67h72.332c-7 65.336-49 119-105 144.67z"/>
</svg>
